<?xml version="1.0" encoding="UTF-8" standalone="no"?>
<svg width="157px" height="42px" viewBox="0 0 157 42" version="1.1" xmlns="http://www.w3.org/2000/svg" xmlns:xlink="http://www.w3.org/1999/xlink" xmlns:sketch="http://www.bohemiancoding.com/sketch/ns">
    <!-- Generator: Sketch 3.2.2 (9983) - http://www.bohemiancoding.com/sketch -->
    <title>Imported Layers</title>
    <desc>Created with Sketch.</desc>
    <defs></defs>
    <g id="Page-1" stroke="none" stroke-width="1" fill="none" fill-rule="evenodd" sketch:type="MSPage">
        <g id="Imported-Layers" sketch:type="MSLayerGroup" fill="#3B3B3B">
            <path d="M10.173,18.496 C10.173,20.104 10.351,20.104 12.138,20.104 L16.191,20.104 C18.634,20.104 20.54,19.985 21.257,19.746 C21.911,19.509 22.386,19.211 22.745,17.66 L23.28,15.277 C23.577,14.92 24.593,14.92 24.829,15.277 C24.829,16.708 24.593,19.093 24.593,21.297 C24.593,23.443 24.829,25.706 24.829,27.076 C24.593,27.434 23.7,27.434 23.28,27.076 L22.687,24.752 C22.386,23.68 21.911,22.846 20.78,22.489 C19.946,22.248 18.456,22.191 16.191,22.191 L12.138,22.191 C10.351,22.191 10.173,22.248 10.173,23.799 L10.173,32.082 C10.173,38.341 10.288,39.233 13.806,39.532 L15.833,39.709 C16.191,39.949 16.071,41.022 15.714,41.199 C12.196,41.08 10.173,41.022 7.788,41.022 C5.165,41.022 3.138,41.08 0.337,41.199 C-0.021,41.022 -0.138,40.066 0.218,39.709 L1.71,39.532 C5.165,39.113 5.284,38.341 5.284,32.082 L5.284,10.629 C5.284,4.372 5.165,3.538 1.71,3.121 L0.757,3.002 C0.399,2.764 0.515,1.691 0.876,1.512 C3.378,1.631 5.403,1.691 7.788,1.691 L18.753,1.691 C22.567,1.691 26.023,1.691 26.798,1.512 C26.798,4.252 26.855,7.113 26.976,9.377 C26.798,9.735 25.966,9.914 25.546,9.558 C25.069,6.876 24.354,4.67 21.372,3.895 C20.064,3.538 18.097,3.538 15.595,3.538 L11.958,3.538 C10.173,3.538 10.173,3.656 10.173,5.923 L10.173,18.496" id="Fill-1" sketch:type="MSShapeGroup"></path>
            <path d="M34.173,23.918 C34.173,21.594 34.173,21.297 32.563,20.224 L32.028,19.865 C31.788,19.627 31.788,18.974 32.085,18.793 C33.456,18.316 36.855,16.768 38.222,15.873 C38.522,15.873 38.761,15.992 38.821,16.23 C38.7,18.316 38.581,21.177 38.581,23.619 L38.581,34.346 C38.581,38.637 38.7,39.233 40.847,39.532 L42.099,39.709 C42.515,40.009 42.396,41.022 41.979,41.199 C40.192,41.08 38.462,41.022 36.378,41.022 C34.232,41.022 32.446,41.08 30.776,41.199 C30.358,41.022 30.239,40.009 30.655,39.709 L31.907,39.532 C34.112,39.233 34.173,38.637 34.173,34.346 L34.173,23.918 L34.173,23.918 Z M39.12,6.936 C39.12,9.08 37.628,10.033 35.958,10.033 C34.112,10.033 32.921,8.662 32.921,7.053 C32.921,5.088 34.351,3.836 36.138,3.836 C37.927,3.836 39.12,5.266 39.12,6.936 L39.12,6.936 Z" id="Fill-2" sketch:type="MSShapeGroup"></path>
            <path d="M44.958,21.774 C44.958,9.854 53.899,0.737 66.173,0.737 C79.939,0.737 86.851,10.688 86.851,21.177 C86.851,33.215 77.673,41.975 66.173,41.975 C52.944,41.975 44.958,32.498 44.958,21.774 L44.958,21.774 Z M80.894,23.023 C80.894,13.192 76.54,2.584 65.161,2.584 C58.962,2.584 50.917,6.815 50.917,19.865 C50.917,28.686 55.21,40.127 66.948,40.127 C74.099,40.127 80.894,34.764 80.894,23.023 L80.894,23.023 Z" id="Fill-3" sketch:type="MSShapeGroup"></path>
            <path d="M154.749,32.498 C153.2,35.598 151.593,37.684 150.519,38.28 C149.208,38.936 147.48,39.174 142.89,39.174 C137.648,39.174 136.396,38.518 135.683,37.803 C134.728,36.789 134.55,34.764 134.55,31.606 L134.55,23.204 C134.55,21.655 134.728,21.594 136.515,21.594 L139.97,21.594 C142.294,21.594 143.726,21.655 144.56,21.891 C145.753,22.191 146.169,23.084 146.409,24.156 L146.944,26.481 C147.241,26.838 148.253,26.838 148.493,26.423 C148.493,25.111 148.253,22.846 148.253,20.7 C148.253,18.436 148.493,16.111 148.493,14.682 C148.253,14.264 147.241,14.264 146.944,14.622 L146.466,17.064 C146.169,18.555 145.753,18.912 145.036,19.15 C144.323,19.39 142.474,19.509 139.97,19.509 L136.515,19.509 C134.728,19.509 134.55,19.509 134.55,17.841 L134.55,5.923 C134.55,3.656 134.55,3.538 136.337,3.538 L140.626,3.538 C143.249,3.538 145.155,3.598 146.409,3.895 C149.505,4.67 150.044,6.757 150.935,9.558 C151.235,9.914 152.187,9.795 152.427,9.438 C152.187,6.815 151.829,2.527 151.474,1.512 C150.757,1.691 147.241,1.691 143.427,1.691 L132.226,1.691 C129.78,1.691 127.757,1.631 125.192,1.512 C124.837,1.691 124.718,2.764 125.071,3.002 L126.028,3.121 C129.542,3.538 129.663,4.432 129.663,10.629 L129.663,32.082 C129.663,38.149 129.372,39.173 126.263,39.5 C123.991,39.699 123.148,39.285 122.142,38.399 C118.089,35.002 114.931,30.711 110.165,23.023 C109.868,22.547 109.569,21.952 109.868,21.594 C112.843,20.403 117.315,17.303 117.315,11.643 C117.315,7.471 115.23,4.79 112.368,3.299 C109.628,1.811 106.11,1.512 102.417,1.512 C96.577,1.512 92.466,1.691 89.126,1.989 C88.648,2.227 88.648,3.18 89.069,3.479 L90.976,3.717 C93.417,4.014 93.599,5.027 93.599,10.688 L93.599,32.082 C93.599,38.341 93.48,39.113 90.023,39.532 L88.532,39.709 C88.173,40.127 88.294,41.022 88.648,41.199 C91.452,41.08 93.599,41.022 96.099,41.022 C98.483,41.022 100.511,41.08 103.191,41.199 C103.55,41.022 103.669,40.009 103.31,39.709 L102.06,39.532 C98.603,39.055 98.483,38.341 98.483,32.082 L98.483,24.575 C98.483,23.323 98.603,23.262 101.284,23.262 C103.669,23.262 104.624,23.858 105.515,25.17 C107.362,27.852 109.806,31.963 111.354,34.168 C115.585,40.186 118.626,41.199 123.692,41.199 C123.837,41.199 123.97,41.194 124.106,41.19 C124.112,41.191 124.116,41.198 124.12,41.199 C127.634,41.08 129.663,41.022 132.226,41.022 L137.589,41.022 C142.89,41.022 148.196,41.08 153.56,41.199 C154.333,39.593 155.823,35.002 156.239,32.916 C156.001,32.379 155.165,32.202 154.749,32.498 L154.749,32.498 Z M108.913,19.926 C107.183,21.237 104.917,21.475 102.774,21.475 C99.735,21.475 98.843,21.356 98.663,21.177 C98.483,20.938 98.483,20.283 98.483,19.211 L98.483,5.266 C98.483,3.598 98.663,3.36 102.358,3.36 C108.974,3.36 111.894,7.828 111.894,12.536 C111.894,16.588 110.522,18.674 108.913,19.926 L108.913,19.926 Z" id="Fill-4" sketch:type="MSShapeGroup"></path>
        </g>
    </g>
</svg>